<svg xmlns="http://www.w3.org/2000/svg" viewBox="0 0 607 767"><defs><style>.cls-1{fill:#8d76ac;stroke-width:21px;}.cls-1,.cls-3{stroke:#fff;stroke-miterlimit:10;}.cls-2,.cls-3{fill:#fff;}.cls-3{stroke-width:8px;}</style></defs><g id="Camada_2" data-name="Camada 2"><g id="Outline"><rect class="cls-1" x="10.5" y="10.5" width="586" height="746" rx="62.7"/><path class="cls-2" d="M218.22,704H369.65a6.94,6.94,0,0,1,6.88,7h0a6.94,6.94,0,0,1-6.88,7H218.22a7,7,0,0,1-6.89-7h0A7,7,0,0,1,218.22,704Z"/><path class="cls-2" d="M162,150a33,33,0,0,1-33,33v10.85a11.09,11.09,0,0,1-7.55,10.66C113.89,206.85,107,201,107,193.5V182h-3a32.88,32.88,0,0,1-28.58-17.24,11.79,11.79,0,0,1,4-15.71,10.71,10.71,0,0,1,15,4.19A11,11,0,0,0,104,159h23.64a12.63,12.63,0,0,0,9.62-4.26c5.51-6.4,1.86-14-4.38-15l-33.45-5.55A30.27,30.27,0,0,1,74,104.24a33,33,0,0,1,33-32.86V60.43a11,11,0,0,1,22,0V73h2.94a33.12,33.12,0,0,1,28.57,16.49,11,11,0,1,1-19,11A11,11,0,0,0,132,95H107a11,11,0,0,0-11,11,8.45,8.45,0,0,0,7.08,8.36l33.45,5.57A30.37,30.37,0,0,1,162,150Z"/><path class="cls-2" d="M514,161a33,33,0,0,1-33,33V206a10.89,10.89,0,0,1-8,10.67c-6.89,1.73-13-3.94-13-11.19V194h-2.81c-11.21,0-21.67-6.6-27.28-17.24-2.91-5.51-1.19-12.53,3.82-15.71s11.45-1.3,14.34,4.19a10.42,10.42,0,0,0,9.11,5.76h22.15a12.34,12.34,0,0,0,11-6.41c3-5.85-.31-12-5.61-12.87l-31.93-5.55c-14.09-2.44-24.31-15-24.31-29.93,0-18.12,14.13-32.86,31.5-32.86V72.43a10.51,10.51,0,1,1,21,0V84h2.94a33.12,33.12,0,0,1,28.57,16.49,11,11,0,1,1-19,11A11,11,0,0,0,484,106H459a11,11,0,0,0-11,11,8.45,8.45,0,0,0,7.08,8.36l33.45,5.57A30.37,30.37,0,0,1,514,161Z"/><path class="cls-2" d="M338,140a33,33,0,0,1-33,33v9.88a11,11,0,1,1-22,.18V172h-2.95a33.11,33.11,0,0,1-28.58-16.49,11,11,0,1,1,19-11A11,11,0,0,0,280,150h23.63a12.64,12.64,0,0,0,9.63-4.28c5.51-6.43,1.86-14-4.38-15.08l-33.45-5.58A30.36,30.36,0,0,1,250,95a33,33,0,0,1,33-33V51a11,11,0,0,1,22,0V63h2.94a33.12,33.12,0,0,1,28.57,16.49,11,11,0,1,1-19,11A11,11,0,0,0,308,85H283a11,11,0,0,0-11,11,8.45,8.45,0,0,0,7.08,8.36l33.45,5.57A30.37,30.37,0,0,1,338,140Z"/><path class="cls-3" d="M84.41,344h218c5.47,0,9.91,3.81,9.91,8.5h0c0,4.69-4.44,8.5-9.91,8.5h-218c-5.47,0-9.91-3.81-9.91-8.5h0C74.5,347.81,78.94,344,84.41,344Z"/><path class="cls-2" d="M241.23,410h198c5,0,9,5.15,9,11.5h0c0,6.35-4,11.5-9,11.5h-198c-5,0-9-5.15-9-11.5h0C232.23,415.15,236.26,410,241.23,410Z"/><path class="cls-2" d="M62.54,476h198c5,0,9,5.15,9,11.5h0c0,6.35-4,11.5-9,11.5h-198c-5,0-9-5.15-9-11.5h0C53.55,481.15,57.57,476,62.54,476Z"/><path class="cls-2" d="M356.31,698.89a5.22,5.22,0,0,1-5.2,5.2c-8,0-11.9-5.83-14.71-10.14-2.6-3.9-3.9-5.46-6.08-5.46-2.65,0-4.68,2.29-7.85,6-3.64,4.31-8.16,9.62-15.75,9.62s-12.06-5.36-15.59-9.72c-3-3.64-5-5.88-7.59-5.88-2,0-3.28,1.3-6,4.73-3.74,4.58-8.89,10.87-20,10.87a26,26,0,0,1,0-52,5.2,5.2,0,1,1,0,10.39,15.6,15.6,0,1,0,0,31.19c6.13,0,8.68-3.12,11.9-7.07,3.12-3.79,7-8.52,14.09-8.52,7.64,0,12.06,5.35,15.59,9.72,3,3.63,5,5.87,7.59,5.87s4.68-2.29,7.85-6c3.64-4.31,8.16-9.61,15.75-9.61s11.9,5.82,14.71,10.13c2.6,3.9,3.9,5.46,6.08,5.46A5.22,5.22,0,0,1,356.31,698.89Z"/><path class="cls-3" d="M372.42,349H513.9c3.55,0,6.43,2.46,6.43,5.5h0c0,3-2.88,5.5-6.43,5.5H372.42c-3.55,0-6.43-2.46-6.43-5.5h0C366,351.46,368.87,349,372.42,349Z"/><path class="cls-2" d="M523.26,507.59l14.51,14.51a23.56,23.56,0,0,1,0,33.33l-19.19,19.18h0l-.36-.37h0l-5.9-5.89L477,533l-6.26-6.26,19.19-19.19a23.54,23.54,0,0,1,33.32,0Zm-78.18,35.2a8.81,8.81,0,0,0-12.49,0L395,580.4a8.83,8.83,0,0,1-12.48-12.49l37.56-37.6a26.51,26.51,0,0,1,37.49,0l4.82,4.82,6.27,6.26L504,576.75l5.89,5.89.37.37L504,589.27l-63.16,63.12a126.73,126.73,0,0,1-64.74,34.66l-9.21,1.84a8.8,8.8,0,0,1-8-2.43,8.91,8.91,0,0,1-2.43-8l1.84-9.21A126.7,126.7,0,0,1,393,604.52l56.94-56.9Z"/><path class="cls-3" d="M127.82,269h218c5.48,0,9.91,3.81,9.91,8.5h0c0,4.69-4.43,8.5-9.91,8.5h-218c-5.48,0-9.91-3.81-9.91-8.5h0C117.91,272.81,122.34,269,127.82,269Z"/></g></g></svg>