<svg xmlns="http://www.w3.org/2000/svg" viewBox="0 0 575.9 558.81"><defs><style>.cls-1{fill:#fff;}</style></defs><g id="Camada_2" data-name="Camada 2"><g id="Camada_1-2" data-name="Camada 1"><path class="cls-1" d="M421.31,189.54a26.47,26.47,0,0,1-11,6.24,30.17,30.17,0,0,1-12.77.86A208.53,208.53,0,0,1,442.34,326c0,115.54-94,209.53-209.53,209.53S23.28,441.54,23.28,326s94-209.53,209.53-209.53a208.41,208.41,0,0,1,120.86,38.46,21.06,21.06,0,0,1,3.34-3.65,63.19,63.19,0,0,1,3.67-9.63,9.09,9.09,0,0,1,6.94-5.36,231.52,231.52,0,0,0-134.81-43.1C104.44,93.19,0,197.63,0,326S104.44,558.81,232.81,558.81,465.62,454.37,465.62,326A231.49,231.49,0,0,0,421.31,189.54Z"/><path class="cls-1" d="M232.81,427.86a14.54,14.54,0,0,0,14.55-14.55V398.76A43.7,43.7,0,0,0,291,355.11a40.16,40.16,0,0,0-33.68-39.76L213.07,308a11.19,11.19,0,0,1-9.37-11.06,14.56,14.56,0,0,1,14.55-14.55h33a14.61,14.61,0,0,1,12.61,7.27,14.54,14.54,0,1,0,25.18-14.56,43.83,43.83,0,0,0-37.81-21.83h-3.9V238.69a14.55,14.55,0,0,0-29.1,0v14.55a43.71,43.71,0,0,0-43.66,43.66,40.18,40.18,0,0,0,33.69,39.77L252.52,344a11.19,11.19,0,0,1,9.38,11.06,14.55,14.55,0,0,1-14.56,14.55h-33a14.59,14.59,0,0,1-12.62-7.29A14.55,14.55,0,0,0,176.55,377a43.8,43.8,0,0,0,37.8,21.81h3.9v14.55A14.54,14.54,0,0,0,232.81,427.86Z"/><path class="cls-1" d="M449.77,116.47V58.23a9.71,9.71,0,0,1,19.41,0v58.24a9.71,9.71,0,1,1-19.41,0Zm9.71,19.41A14.56,14.56,0,1,0,474,150.44,14.54,14.54,0,0,0,459.48,135.88Zm112.39,47.37c-6.79,13.1-21.06,20.57-38.92,20.57H386.1c-18,0-32.12-7.47-38.92-20.57S342.23,153.16,352,139l78-123.46A35.64,35.64,0,0,1,459.48,0a35.19,35.19,0,0,1,29.11,15.24L567,139.18c9.8,14.17,11.64,31,4.75,44.07ZM551,150.05a.67.67,0,0,1-.19-.39L472.48,25.91a16.17,16.17,0,0,0-26.2.39L368.15,149.66c-6,8.54-7.38,17.86-3.89,24.56s11.17,10.19,21.74,10.19H532.76c10.58,0,18.34-3.59,21.74-10.19s2.13-16-3.59-24.17Z"/></g></g></svg>