<svg xmlns="http://www.w3.org/2000/svg" viewBox="0 0 575.9 478.19"><defs><style>.cls-1{fill:#fff;}</style></defs><g id="Camada_2" data-name="Camada 2"><g id="Camada_1-2" data-name="Camada 1"><path class="cls-1" d="M452.17,0H355.55c-8.72,0-17.61,6.93-19.25,15.49a19.35,19.35,0,0,0,19,23.21h50l-88.72,88.72L252.74,63.58a19.25,19.25,0,0,0-27.21,0l-96.66,96.67a19.35,19.35,0,0,0,21.42,31.54,20.92,20.92,0,0,1,.79-3,40.85,40.85,0,0,1-1.2-7.93,19,19,0,0,1,2.87-9.8c3-4.84,8.18-7.77,12.51-11.39,1.58-1.56,3.25-3,5-4.42l.1-.09a21.36,21.36,0,0,1,3.57-3.12,5.19,5.19,0,0,1,.5-.31,44.85,44.85,0,0,1,8.9-5.68c.34-.2.68-.4,1-.59a25.79,25.79,0,0,1,1.54-2.36c3.58-4.91,8.45-7.72,13.92-10.13,5.1-2.24,10.49-4.5,16.11-4.93l23.29-23.27,30.49,30.49c14.39.49,28.26,5.34,42.36,8a129.46,129.46,0,0,1,22.19,5.76c3.67-5.58,9.52-9.5,15.57-13.61,8.28-5.64,17-12.74,27.08-14.55a7,7,0,0,1,1.1-.11L432.68,66.1v42.69c2.11.13,4.21.31,6.31.5a56.35,56.35,0,0,1,16.44-2.59,6,6,0,0,1,6.22,5,80.58,80.58,0,0,1,9.74,1.3V19.22A19.22,19.22,0,0,0,452.17,0Z"/><path class="cls-1" d="M436.54,175.13a8.7,8.7,0,0,0-8.71,8.71v8.71a26.16,26.16,0,0,0-26.13,26.13,24.05,24.05,0,0,0,20.16,23.81l26.49,4.41a6.69,6.69,0,0,1,5.61,6.62,8.71,8.71,0,0,1-8.71,8.71H425.49a8.73,8.73,0,0,1-7.55-4.36,8.71,8.71,0,1,0-15.07,8.73,26.24,26.24,0,0,0,22.63,13h2.34v8.71a8.71,8.71,0,1,0,17.42,0v-8.71a26.17,26.17,0,0,0,26.13-26.12,24.05,24.05,0,0,0-20.17-23.8l-26.48-4.42a6.69,6.69,0,0,1-5.61-6.62,8.72,8.72,0,0,1,8.71-8.71h19.75a8.73,8.73,0,0,1,7.55,4.36,8.71,8.71,0,0,0,15.07-8.72,26.22,26.22,0,0,0-22.63-13.07h-2.33v-8.71A8.71,8.71,0,0,0,436.54,175.13Z"/><path class="cls-1" d="M436.55,96.75a139.22,139.22,0,0,0-112.13,56.72,38.7,38.7,0,0,1,5.41,3.3,6,6,0,0,1,5.26,3.19c.26.52.5,1,.73,1.52a125.43,125.43,0,1,1,9.6,160.7A83.72,83.72,0,0,1,347,336a6,6,0,0,1-2.13,5,138.8,138.8,0,0,0,91.66,34.47c76.84,0,139.35-62.51,139.35-139.35S513.39,96.75,436.55,96.75Z"/><path class="cls-1" d="M252.69,121.46c-58.34,0-104,26.11-104,59.45V246a174.61,174.61,0,0,0-44.59-5.62c-58.34,0-104,26.12-104,59.46V418.74c0,33.34,45.71,59.45,104.05,59.45S208.1,452.08,208.1,418.74V413a175.06,175.06,0,0,0,44.59,5.72c58.34,0,104.05-26.12,104.05-59.46V180.91C356.74,147.57,311,121.46,252.69,121.46Zm0,14.86c48.34,0,89.18,20.42,89.18,44.59s-40.84,44.6-89.18,44.6-89.19-20.43-89.19-44.6S204.35,136.32,252.69,136.32ZM104.05,255.23c48.34,0,89.18,20.43,89.18,44.6s-40.84,44.59-89.18,44.59S14.86,324,14.86,299.83,55.71,255.23,104.05,255.23ZM14.86,330.74c18,17.22,50.82,28.54,89.19,28.54S175.2,348,193.23,330.74v28.54c0,24.17-40.84,44.59-89.18,44.59s-89.19-20.42-89.19-44.59Zm89.19,132.59c-48.34,0-89.19-20.42-89.19-44.59V390.2c18,17.21,50.82,28.54,89.19,28.54s71.15-11.33,89.18-28.54v28.54C193.23,442.91,152.39,463.33,104.05,463.33Zm148.64-59.46a157.26,157.26,0,0,1-44.59-6.27v-44a174.39,174.39,0,0,0,44.59,5.7c38.36,0,71.15-11.33,89.18-28.54v28.54c0,24.17-40.84,44.59-89.18,44.59Zm0-59.45a157.3,157.3,0,0,1-44.59-6.3V299.83a34.48,34.48,0,0,0-.51-5.85,172.86,172.86,0,0,0,45.1,5.85c38.36,0,71.15-11.33,89.18-28.54v28.54C341.87,324,301,344.42,252.69,344.42Zm0-59.46c-19.46,0-37.73-3.27-53.3-9.27-7.7-10.16-20.16-18.75-35.89-24.92V211.85c18,17.21,50.82,28.53,89.19,28.53s71.15-11.32,89.18-28.53v28.53c0,24.17-40.84,44.6-89.18,44.6Z"/></g></g></svg>