<svg xmlns="http://www.w3.org/2000/svg" viewBox="0 0 101.79 81.56"><defs><style>.cls-1{fill:#c3b9d3;}.cls-2{fill:#8d76ac;}.cls-3{isolation:isolate;}.cls-4{fill:#6b4f75;}</style></defs><g id="Camada_2" data-name="Camada 2"><g id="Camada_1-2" data-name="Camada 1"><g id="Camada_2-2" data-name="Camada 2"><g id="Camada_1-2-2" data-name="Camada 1-2"><path class="cls-1" d="M22.88,0a18.8,18.8,0,0,1,7.81,1.41,27.11,27.11,0,0,1,5.48,3.27c1,.72,1.69.81,2.2.26s.85-1.86,1-3.93H41q-.15,2.67-.22,6.48t-.07,10.08H39.08c-.34-2.06-.65-3.71-.93-4.93a15.84,15.84,0,0,0-1-3.13,13.38,13.38,0,0,0-1.62-2.59,12.86,12.86,0,0,0-5.61-4.29,19.32,19.32,0,0,0-7.13-1.33,11.84,11.84,0,0,0-6.37,1.76,15.45,15.45,0,0,0-4.9,5.08,27.41,27.41,0,0,0-3.17,8,45.82,45.82,0,0,0-1.18,10.5A42.27,42.27,0,0,0,8.39,37.34a24.84,24.84,0,0,0,3.42,7.82A15,15,0,0,0,17,50a13.23,13.23,0,0,0,6.45,1.62,19.57,19.57,0,0,0,6.77-1.3,11.3,11.3,0,0,0,5.54-4.18A12.56,12.56,0,0,0,38,41.56a56.33,56.33,0,0,0,1.11-6.84h1.66c0,4.37,0,7.89.07,10.54s.12,4.91.22,6.74H39.37c-.19-2.07-.52-3.36-1-3.89s-1.2-.46-2.2.22a37.38,37.38,0,0,1-5.65,3.27A18,18,0,0,1,22.85,53a22.86,22.86,0,0,1-12-3.1,20.7,20.7,0,0,1-8-8.93A31.71,31.71,0,0,1,0,27,31.82,31.82,0,0,1,2.94,12.83,23.19,23.19,0,0,1,11,3.4,21,21,0,0,1,22.88,0Z"/><path class="cls-2" d="M101.79,1V2.51a12.23,12.23,0,0,0-3.7.54,2.71,2.71,0,0,0-1.7,1.73A13.3,13.3,0,0,0,96,8.7V44.37a13.33,13.33,0,0,0,.43,3.88A2.56,2.56,0,0,0,98.09,50a14.57,14.57,0,0,0,3.7.58V52q-1.65-.15-4.14-.18H87.39c-1.63,0-3,.08-4,.18V50.56A14.67,14.67,0,0,0,87.17,50a2.57,2.57,0,0,0,1.69-1.73,13,13,0,0,0,.44-3.88V4.76l.28.22L71.91,52.36H70.76L52.62,5.63v38a13.56,13.56,0,0,0,.47,4.06A3.2,3.2,0,0,0,55,49.78a12.63,12.63,0,0,0,4.21.76V52q-1.29-.15-3.39-.18H48.15q-1.53,0-3.06.18V50.56a10.29,10.29,0,0,0,3.71-.76,3.17,3.17,0,0,0,1.69-2.09,15,15,0,0,0,.43-4.06v-35a13,13,0,0,0-.43-3.92A2.7,2.7,0,0,0,48.8,3a12.37,12.37,0,0,0-3.63-.49V1c.81.05,1.84.1,3.06.15s2.43.07,3.63.07,2.15,0,3.28-.07L58,1,74.29,44.08l-1.22.57L89.27,1.24h3.38c1.68,0,3.35,0,5-.07S100.69,1.07,101.79,1Z"/><g class="cls-3"><path class="cls-4" d="M26.18,74.21a.26.26,0,0,1,.29.28.27.27,0,0,1-.09.21.31.31,0,0,1-.22.09q-3.6-.23-6-.3a.18.18,0,0,0-.15.06C17.8,77.39,16.78,79,17,79.33a.2.2,0,0,1,0,.14.26.26,0,0,1-.29.28.31.31,0,0,1-.28-.14c-.17-.31,0-.84.4-1.61a33.63,33.63,0,0,1,2.45-3.45q0-.09,0-.09c-2.57-.07-4.87-.06-6.9.05a.25.25,0,0,0-.16,0q-2.76,2-4.81,3.78a.26.26,0,0,1-.2.07A.3.3,0,0,1,7,78.33a.25.25,0,0,1-.09-.2A.25.25,0,0,1,7,77.92c1-.87,2.37-2,4.15-3.29,0,0,0,0,0,0a31.8,31.8,0,0,0-4.33.55h0c-.2,0-.31-.09-.31-.28a.25.25,0,0,1,.24-.28A34.12,34.12,0,0,1,12,74a.34.34,0,0,0,.17,0q4.37-3.2,8.42-5.62c2.69-1.62,4.47-2.44,5.32-2.44a.52.52,0,0,1,.49.22.59.59,0,0,1,0,.54,36.58,36.58,0,0,1-2.93,3.74c-1.17,1.41-2.12,2.58-2.87,3.52,0,0,0,.07,0,.07C22.56,74,24.42,74.11,26.18,74.21Zm-6.37-.37q1-1.26,3.17-3.85a43,43,0,0,0,2.83-3.58c-.79,0-2.41.8-4.84,2.27s-5,3.19-7.79,5.16c0,0,0,.06,0,.06q2.76-.12,6.49,0A.12.12,0,0,0,19.81,73.84Z"/><path class="cls-4" d="M35.53,74.9c.2,0,.3.09.3.28a.3.3,0,0,1-.15.24,19.87,19.87,0,0,1-4,2,10.63,10.63,0,0,1-3.33.81c-1,0-1.44-.38-1.44-1.15a3.34,3.34,0,0,1,.58-1.38c.05-.07.06-.12,0-.14s-.08,0-.14.05c-2,1.7-3.17,2.55-3.54,2.55s-.66-.19-.66-.57a3.32,3.32,0,0,1,1.53-2.3,4.69,4.69,0,0,1,2.84-1.25,1.53,1.53,0,0,1,.62.13l1-.9,0,0a101.86,101.86,0,0,1,7.53-8.94q4.45-4.77,5.45-4.77c.41,0,.62.18.62.54s-1.46,2.19-4.38,5.16-5.89,5.81-8.91,8.52c-.09.11-.21.28-.36.49l-.32.44a.8.8,0,0,1,.09.54c0,.18-.09.27-.29.27a.25.25,0,0,1-.25-.13,4.75,4.75,0,0,0-.81,1.67q0,.57.84.57a10.17,10.17,0,0,0,3.17-.78A18.41,18.41,0,0,0,35.37,75,.21.21,0,0,1,35.53,74.9ZM23.85,77.6c.26,0,1.51-1,3.77-3h-.09a4.16,4.16,0,0,0-2.4,1.08c-.91.71-1.37,1.32-1.37,1.82C23.76,77.58,23.79,77.6,23.85,77.6ZM42.1,60.15c-.4,0-1.7,1.13-3.88,3.39s-4.36,4.73-6.54,7.4q3-2.76,6.72-6.55t3.75-4.21S42.13,60.15,42.1,60.15Z"/><path class="cls-4" d="M44.6,74.9a.33.33,0,0,1,.22.08.29.29,0,0,1,.09.22.28.28,0,0,1-.14.24A16.6,16.6,0,0,1,42,76.79a8.18,8.18,0,0,1-2.88.59,2.15,2.15,0,0,1-1.3-.37,29.71,29.71,0,0,1-3,3.13c-1.06.94-1.81,1.42-2.25,1.42s-.82-.23-.82-.69a6.78,6.78,0,0,1,1.42-3,26.84,26.84,0,0,1,2.35-3.11.25.25,0,0,1,.22-.1c.19,0,.29.09.29.28a.27.27,0,0,1-.07.19,25,25,0,0,0-2.25,3,6.61,6.61,0,0,0-1.36,2.77.12.12,0,0,0,.13.14c.36,0,1-.46,2-1.37a27,27,0,0,0,2.92-3.08,1.65,1.65,0,0,1-.15-.69,2.41,2.41,0,0,1,.54-1.48A1.45,1.45,0,0,1,39,73.67a.56.56,0,0,1,.4.14.47.47,0,0,1,.15.37,5.4,5.4,0,0,1-1.31,2.37,1.43,1.43,0,0,0,.93.26,7.37,7.37,0,0,0,2.69-.56A15.71,15.71,0,0,0,44.44,75,.24.24,0,0,1,44.6,74.9Zm-5.74-.46c0-.09,0-.16,0-.18s-.08,0-.19,0a1.82,1.82,0,0,0-.56.68,1.79,1.79,0,0,0-.26.88v.07a.15.15,0,0,1,0,.06A6.93,6.93,0,0,0,38.86,74.44Z"/><path class="cls-4" d="M52.68,74.9a.29.29,0,0,1,.21.08.29.29,0,0,1,.09.22.27.27,0,0,1-.15.24,6.38,6.38,0,0,1-3.46.71,7.65,7.65,0,0,1-3.63-1.08,3.41,3.41,0,0,1-.6,2.29,2,2,0,0,1-1.63,1.16.72.72,0,0,1-.57-.26,1,1,0,0,1-.22-.66A2.65,2.65,0,0,1,43.36,76,5.83,5.83,0,0,1,45,74.58l0,0s0,0,0,0a.27.27,0,0,1,.18-.21.43.43,0,0,1,.29,0h.08l.53-.21a.06.06,0,0,0,0,0h.06a.29.29,0,0,1,.21.09.32.32,0,0,1,.08.21.26.26,0,0,1-.2.27l-.11,0,0,0a7.41,7.41,0,0,0,3.27.9A5.71,5.71,0,0,0,52.54,75,.16.16,0,0,1,52.68,74.9Zm-9.17,3q.6,0,1.17-1a3,3,0,0,0,.47-1.82,4.69,4.69,0,0,0-1.33,1.2,2.16,2.16,0,0,0-.52,1.24C43.3,77.83,43.37,77.94,43.51,77.94Z"/><path class="cls-4" d="M52.85,78.38c-1.11,0-1.67-.38-1.67-1.13a2.9,2.9,0,0,1,0-.38A3.52,3.52,0,0,1,52.45,75a3,3,0,0,1,1.91-.94.82.82,0,0,1,.56.18.57.57,0,0,1,.21.46,1.24,1.24,0,0,1-.25.69,1.74,1.74,0,0,1-.61.57l-.05,0-.11,0a.25.25,0,0,1-.21-.08.28.28,0,0,1-.08-.21.27.27,0,0,1,.14-.25,1.56,1.56,0,0,0,.39-.35.68.68,0,0,0,.18-.37c0-.07-.06-.11-.17-.11a2.54,2.54,0,0,0-1.54.8,2.86,2.86,0,0,0-1,1.52,1.24,1.24,0,0,0,0,.3.42.42,0,0,0,.23.43,2,2,0,0,0,.83.12,11.36,11.36,0,0,0,3.64-.8,21.45,21.45,0,0,0,4.16-2,.3.3,0,0,1,.17,0A.32.32,0,0,1,61,75a.33.33,0,0,1,.08.22.24.24,0,0,1-.15.22,22.2,22.2,0,0,1-4.32,2.12A11.43,11.43,0,0,1,52.85,78.38Z"/><path class="cls-4" d="M71.73,74.9a.28.28,0,0,1,.29.3.23.23,0,0,1-.12.22,19.61,19.61,0,0,1-3.7,1.94,9.92,9.92,0,0,1-3.2.88c-1,0-1.42-.38-1.42-1.15a3.78,3.78,0,0,1,.71-1.82c0-.07.06-.12,0-.14a.16.16,0,0,0-.14.05l-.16.11-.17.12L62,76.66a17.58,17.58,0,0,1-1.67,1,3.75,3.75,0,0,1-1.51.54.78.78,0,0,1-.55-.18.57.57,0,0,1-.2-.46c0-.59.62-1.3,1.85-2.11a6,6,0,0,1,2.9-1.23,1.13,1.13,0,0,1,1,.5,4.7,4.7,0,0,1,1.39-.81.41.41,0,0,1,.26.09.34.34,0,0,1,.11.24,2.48,2.48,0,0,1-.44.77,4.3,4.3,0,0,0-1,2.11q0,.57.84.57a9.65,9.65,0,0,0,3-.82A16.48,16.48,0,0,0,71.57,75,.27.27,0,0,1,71.73,74.9ZM63.38,75a.46.46,0,0,0-.19-.2,1,1,0,0,0-.36,0,4,4,0,0,0-1.6.52,9.89,9.89,0,0,0-1.79,1.17c-.52.44-.78.77-.78,1s.06.14.17.14A3.54,3.54,0,0,0,60.41,77C61.11,76.56,62.1,75.91,63.38,75Z"/><path class="cls-4" d="M71.92,78.38c-1.11,0-1.67-.38-1.67-1.13a1.82,1.82,0,0,1,0-.38A3.56,3.56,0,0,1,71.51,75a3.07,3.07,0,0,1,1.92-.94.84.84,0,0,1,.56.18.57.57,0,0,1,.21.46,1.27,1.27,0,0,1-.26.69,1.8,1.8,0,0,1-.6.57l0,0-.11,0a.25.25,0,0,1-.21-.08.29.29,0,0,1-.09-.21.27.27,0,0,1,.15-.25,1.53,1.53,0,0,0,.38-.35.64.64,0,0,0,.19-.37c0-.07-.06-.11-.17-.11a2.51,2.51,0,0,0-1.54.8,3,3,0,0,0-1,1.52,2.11,2.11,0,0,0,0,.3.43.43,0,0,0,.23.43,2,2,0,0,0,.84.12,11.25,11.25,0,0,0,3.63-.8,21.25,21.25,0,0,0,4.17-2,.3.3,0,0,1,.17,0,.32.32,0,0,1,.21.08.33.33,0,0,1,.08.22.24.24,0,0,1-.15.22,22.2,22.2,0,0,1-4.32,2.12A11.43,11.43,0,0,1,71.92,78.38Z"/><path class="cls-4" d="M79.34,78.41a1.21,1.21,0,0,1-.81-.26,1,1,0,0,1-.29-.74c0-.71.76-1.82,2.29-3.32a.29.29,0,0,1,.21-.09c.2,0,.3.09.3.28a.28.28,0,0,1-.08.2h0a18,18,0,0,0-1.54,1.75,2.42,2.42,0,0,0-.6,1.17c0,.29.18.44.52.44a10.1,10.1,0,0,0,3.07-1A32.57,32.57,0,0,0,86.25,75l.16,0a.28.28,0,0,1,.29.3.25.25,0,0,1-.12.24,32.09,32.09,0,0,1-4,2A10.44,10.44,0,0,1,79.34,78.41Zm2.39-4.83a.26.26,0,0,1-.29-.28.32.32,0,0,1,.07-.18l.48-.61a.28.28,0,0,1,.24-.11.29.29,0,0,1,.21.09.32.32,0,0,1,.08.21.34.34,0,0,1-.08.18c-.14.17-.26.31-.34.42a.56.56,0,0,0-.11.17A.3.3,0,0,1,81.73,73.58Z"/><path class="cls-4" d="M97.33,74.9a.32.32,0,0,1,.21.08.33.33,0,0,1,.08.22.22.22,0,0,1-.13.22,19.3,19.3,0,0,1-3.7,1.94,10,10,0,0,1-3.19.88c-.95,0-1.43-.38-1.43-1.15a3.72,3.72,0,0,1,.72-1.82c0-.07,0-.12,0-.14s-.07,0-.13.05l-.17.11-.16.12c-.81.55-1.42,1-1.85,1.25a18.59,18.59,0,0,1-1.66,1,3.83,3.83,0,0,1-1.52.54.79.79,0,0,1-.55-.18.6.6,0,0,1-.2-.46c0-.59.62-1.3,1.86-2.11a5.93,5.93,0,0,1,2.89-1.23,1.12,1.12,0,0,1,1,.5,4.83,4.83,0,0,1,1.39-.81.39.39,0,0,1,.26.09.34.34,0,0,1,.11.24,2.48,2.48,0,0,1-.44.77,4.26,4.26,0,0,0-1,2.11q0,.57.84.57a9.79,9.79,0,0,0,3-.82A16.63,16.63,0,0,0,97.16,75,.3.3,0,0,1,97.33,74.9ZM89,75a.41.41,0,0,0-.19-.2,1,1,0,0,0-.36,0,4,4,0,0,0-1.6.52A10.25,10.25,0,0,0,85,76.46c-.52.44-.78.77-.78,1s.06.14.17.14A3.54,3.54,0,0,0,86,77C86.7,76.56,87.69,75.91,89,75Z"/></g></g></g></g></g></svg>