<svg xmlns="http://www.w3.org/2000/svg" viewBox="0 0 101.8 81.57"><defs><style>.cls-1{fill:#c3b9d3;}.cls-2{fill:#8d76ac;}.cls-3{fill:#b7acc6;}</style></defs><g id="Camada_2" data-name="Camada 2"><g id="Camada_1-2" data-name="Camada 1"><g id="Camada_2-2" data-name="Camada 2"><g id="Camada_1-2-2" data-name="Camada 1-2"><g id="Camada_2-2-2" data-name="Camada 2-2"><g id="Camada_1-2-2-2" data-name="Camada 1-2-2"><path class="cls-1" d="M22.89,0A18.83,18.83,0,0,1,30.7,1.42a27.11,27.11,0,0,1,5.48,3.27c1,.72,1.69.81,2.2.26s.85-1.86,1-3.93H41q-.15,2.67-.22,6.48t-.07,10.08H39.09c-.34-2.06-.65-3.71-.93-4.93a15.84,15.84,0,0,0-1-3.13,13.38,13.38,0,0,0-1.62-2.59,12.92,12.92,0,0,0-5.61-4.29A19.32,19.32,0,0,0,22.8,1.31a11.82,11.82,0,0,0-6.37,1.76,15.45,15.45,0,0,0-4.9,5.08,27.41,27.41,0,0,0-3.17,8,45.82,45.82,0,0,0-1.18,10.5A42.4,42.4,0,0,0,8.4,37.35a24.84,24.84,0,0,0,3.42,7.82A15,15,0,0,0,17,50a13.23,13.23,0,0,0,6.45,1.62,19.57,19.57,0,0,0,6.77-1.3,11.3,11.3,0,0,0,5.54-4.18A12.71,12.71,0,0,0,38,41.57a56.33,56.33,0,0,0,1.11-6.84h1.66c0,4.37,0,7.89.07,10.54s.12,4.91.22,6.74H39.38c-.19-2.07-.52-3.36-1-3.89s-1.2-.46-2.2.22a36.89,36.89,0,0,1-5.65,3.27A18,18,0,0,1,22.86,53a22.86,22.86,0,0,1-12-3.1,20.7,20.7,0,0,1-8-8.93A31.73,31.73,0,0,1,0,27,31.78,31.78,0,0,1,3,12.84,23.17,23.17,0,0,1,11,3.41,21,21,0,0,1,22.89,0Z"/><path class="cls-2" d="M101.8,1V2.52a12.23,12.23,0,0,0-3.7.54,2.71,2.71,0,0,0-1.7,1.73A13.61,13.61,0,0,0,96,8.71V44.38a13.33,13.33,0,0,0,.43,3.88A2.58,2.58,0,0,0,98.1,50a14.5,14.5,0,0,0,3.7.58V52q-1.65-.15-4.14-.18H87.4c-1.63,0-3,.08-4,.18V50.57A14.65,14.65,0,0,0,87.18,50a2.57,2.57,0,0,0,1.69-1.73,13,13,0,0,0,.44-3.88V4.77l.28.22L71.92,52.37H70.77L52.63,5.64v38a13.56,13.56,0,0,0,.47,4.06A3.19,3.19,0,0,0,55,49.79a12.58,12.58,0,0,0,4.21.76V52q-1.29-.15-3.39-.18H48.16A26.17,26.17,0,0,0,45.1,52V50.57a10.29,10.29,0,0,0,3.71-.76,3.17,3.17,0,0,0,1.69-2.09,15,15,0,0,0,.43-4.06v-35a13,13,0,0,0-.43-3.92A2.72,2.72,0,0,0,48.81,3a12.37,12.37,0,0,0-3.63-.49V1c.81.05,1.84.1,3.06.15s2.43.07,3.63.07,2.15,0,3.28-.07L58,1,74.3,44.09l-1.22.57L89.28,1.25h3.38c1.68,0,3.35,0,5-.07S100.7,1.08,101.8,1Z"/><path class="cls-3" d="M26.19,74.22a.27.27,0,0,1,.29.23v0a.27.27,0,0,1-.09.21.31.31,0,0,1-.22.09q-3.6-.22-6-.3a.2.2,0,0,0-.15.06c-2.21,2.84-3.23,4.45-3,4.78a.17.17,0,0,1,0,.14.26.26,0,0,1-.24.28h-.05a.31.31,0,0,1-.28-.14c-.17-.31,0-.84.4-1.61a33.15,33.15,0,0,1,2.45-3.45v-.09c-2.57-.07-4.87-.06-6.9,0a.22.22,0,0,0-.16,0q-2.76,2-4.81,3.78a.25.25,0,0,1-.2.07.26.26,0,0,1-.21,0,.25.25,0,0,1-.09-.2A.24.24,0,0,1,7,77.93c1-.87,2.37-2,4.15-3.29h0a31.64,31.64,0,0,0-4.33.55h0c-.2,0-.31-.09-.31-.28a.25.25,0,0,1,.22-.28h0A34.34,34.34,0,0,1,12,74a.25.25,0,0,0,.17,0q4.37-3.2,8.42-5.62C23.29,66.77,25.07,66,25.92,66a.53.53,0,0,1,.49.22.57.57,0,0,1,0,.54,35.2,35.2,0,0,1-2.93,3.74C22.31,71.86,21.36,73,20.61,74V74C22.57,74,24.43,74.12,26.19,74.22Zm-6.37-.37C20.49,73,21.54,71.73,23,70a42.36,42.36,0,0,0,2.83-3.58c-.79,0-2.41.8-4.84,2.27s-5,3.19-7.79,5.16v.06q2.76-.12,6.49,0A.12.12,0,0,0,19.82,73.85Z"/><path class="cls-3" d="M35.54,74.91c.2,0,.3.09.3.28a.3.3,0,0,1-.15.24,19.42,19.42,0,0,1-4,2,10.62,10.62,0,0,1-3.33.81c-1,0-1.44-.38-1.44-1.15a3.45,3.45,0,0,1,.58-1.38c.05-.07.06-.12,0-.14s-.08,0-.14.05c-2,1.7-3.17,2.55-3.54,2.55s-.66-.19-.66-.57a3.32,3.32,0,0,1,1.53-2.3,4.67,4.67,0,0,1,2.84-1.25,1.5,1.5,0,0,1,.62.13l1-.9h0a102,102,0,0,1,7.53-8.94c3-3.18,4.78-4.77,5.45-4.77.41,0,.62.18.62.54s-1.46,2.19-4.38,5.16-5.89,5.81-8.91,8.52c-.09.11-.21.28-.36.49l-.32.44a.84.84,0,0,1,.09.54c0,.18-.09.27-.29.27a.26.26,0,0,1-.25-.13,4.8,4.8,0,0,0-.81,1.67q0,.57.84.57a10.24,10.24,0,0,0,3.17-.78A18.43,18.43,0,0,0,35.38,75,.2.2,0,0,1,35.54,74.91Zm-11.68,2.7c.26,0,1.51-1,3.77-3h-.09a4.14,4.14,0,0,0-2.4,1.08c-.91.71-1.37,1.32-1.37,1.82C23.77,77.59,23.8,77.61,23.86,77.61ZM42.11,60.16c-.4,0-1.7,1.13-3.88,3.39s-4.36,4.73-6.54,7.4q3-2.76,6.72-6.55t3.75-4.21C42.19,59.77,42.14,60.16,42.11,60.16Z"/><path class="cls-3" d="M44.61,74.91a.35.35,0,0,1,.22.08.31.31,0,0,1,.09.22.27.27,0,0,1-.14.24A16.12,16.12,0,0,1,42,76.8a8.14,8.14,0,0,1-2.88.59,2.15,2.15,0,0,1-1.3-.37,28.61,28.61,0,0,1-3,3.13c-1.06.94-1.81,1.42-2.25,1.42s-.82-.23-.82-.69a6.89,6.89,0,0,1,1.42-3,27.27,27.27,0,0,1,2.35-3.11.23.23,0,0,1,.22-.1c.19,0,.29.09.29.28a.26.26,0,0,1-.07.19,25.24,25.24,0,0,0-2.25,3,6.54,6.54,0,0,0-1.36,2.77.12.12,0,0,0,.1.14h0c.36,0,1-.46,2-1.37a27.42,27.42,0,0,0,2.92-3.08,1.65,1.65,0,0,1-.15-.69,2.42,2.42,0,0,1,.54-1.48A1.45,1.45,0,0,1,39,73.68a.53.53,0,0,1,.4.14.48.48,0,0,1,.15.37,5.44,5.44,0,0,1-1.31,2.37,1.46,1.46,0,0,0,.93.26,7.52,7.52,0,0,0,2.69-.56A15.35,15.35,0,0,0,44.45,75,.27.27,0,0,1,44.61,74.91Zm-5.74-.46v-.18s-.08,0-.19,0a2.25,2.25,0,0,0-.82,1.56V76A7,7,0,0,0,38.87,74.45Z"/><path class="cls-3" d="M52.69,74.91a.32.32,0,0,1,.21.08.31.31,0,0,1,.09.22.27.27,0,0,1-.15.24,6.38,6.38,0,0,1-3.46.71,7.64,7.64,0,0,1-3.63-1.08,3.4,3.4,0,0,1-.6,2.29,2,2,0,0,1-1.63,1.16.7.7,0,0,1-.57-.26,1,1,0,0,1-.22-.66,2.64,2.64,0,0,1,.64-1.6A5.88,5.88,0,0,1,45,74.59h0a.28.28,0,0,1,.18-.21.48.48,0,0,1,.29,0h.08l.53-.21h.06a.27.27,0,0,1,.21.09.32.32,0,0,1,.08.21.26.26,0,0,1-.2.27h-.11a7.39,7.39,0,0,0,3.27.9A5.65,5.65,0,0,0,52.55,75,.15.15,0,0,1,52.69,74.91Zm-9.17,3c.4,0,.79-.33,1.17-1a3,3,0,0,0,.47-1.82,4.63,4.63,0,0,0-1.33,1.2,2.19,2.19,0,0,0-.52,1.24c0,.31.07.42.21.42Z"/><path class="cls-3" d="M52.86,78.39c-1.11,0-1.67-.38-1.67-1.13a2.41,2.41,0,0,1,0-.38A3.52,3.52,0,0,1,52.46,75a3,3,0,0,1,1.91-.94.82.82,0,0,1,.56.18.55.55,0,0,1,.21.46,1.24,1.24,0,0,1-.25.69,1.67,1.67,0,0,1-.61.57h-.16a.24.24,0,0,1-.21-.08.3.3,0,0,1-.08-.21.29.29,0,0,1,.14-.25,1.44,1.44,0,0,0,.39-.35.65.65,0,0,0,.18-.37c0-.07-.06-.11-.17-.11a2.54,2.54,0,0,0-1.54.8,2.89,2.89,0,0,0-1,1.52,1.5,1.5,0,0,0,0,.3.42.42,0,0,0,.23.43,2,2,0,0,0,.83.12,11.11,11.11,0,0,0,3.64-.8,21,21,0,0,0,4.16-2,.25.25,0,0,1,.17,0A.42.42,0,0,1,61,75a.35.35,0,0,1,.08.22.24.24,0,0,1-.15.22,22.48,22.48,0,0,1-4.32,2.12A11.57,11.57,0,0,1,52.86,78.39Z"/><path class="cls-3" d="M71.74,74.91a.29.29,0,0,1,.29.27v0a.22.22,0,0,1-.12.22,19.19,19.19,0,0,1-3.7,1.94,9.9,9.9,0,0,1-3.2.88c-1,0-1.42-.38-1.42-1.15a3.75,3.75,0,0,1,.71-1.82c0-.07.06-.12,0-.14a.16.16,0,0,0-.14,0L64,75.3l-.17.12L62,76.67a17.55,17.55,0,0,1-1.67,1,3.71,3.71,0,0,1-1.51.54.78.78,0,0,1-.55-.18.57.57,0,0,1-.2-.46c0-.59.62-1.3,1.85-2.11a6.06,6.06,0,0,1,2.9-1.23,1.13,1.13,0,0,1,1,.5,4.61,4.61,0,0,1,1.39-.81.41.41,0,0,1,.26.09.32.32,0,0,1,.11.24,2.57,2.57,0,0,1-.44.77,4.31,4.31,0,0,0-1,2.11q0,.57.84.57a9.76,9.76,0,0,0,3-.82A16.13,16.13,0,0,0,71.58,75,.27.27,0,0,1,71.74,74.91Zm-8.35.1a.52.52,0,0,0-.19-.2,1.09,1.09,0,0,0-.36,0,4.13,4.13,0,0,0-1.6.52,10.21,10.21,0,0,0-1.79,1.17c-.52.44-.78.77-.78,1s.06.14.17.14A3.51,3.51,0,0,0,60.42,77C61.12,76.57,62.11,75.92,63.39,75Z"/><path class="cls-3" d="M71.93,78.39c-1.11,0-1.67-.38-1.67-1.13a2.41,2.41,0,0,1,0-.38A3.6,3.6,0,0,1,71.52,75a3.08,3.08,0,0,1,1.92-.94.87.87,0,0,1,.56.18.55.55,0,0,1,.21.46,1.33,1.33,0,0,1-.26.69,1.82,1.82,0,0,1-.6.57h-.11a.24.24,0,0,1-.21-.08.27.27,0,0,1-.09-.21.29.29,0,0,1,.15-.25,1.4,1.4,0,0,0,.38-.35.66.66,0,0,0,.19-.37c0-.07-.06-.11-.17-.11a2.54,2.54,0,0,0-1.54.8,3,3,0,0,0-1,1.52,1.5,1.5,0,0,0,0,.3.42.42,0,0,0,.23.43,2,2,0,0,0,.84.12,11.05,11.05,0,0,0,3.63-.8,20.77,20.77,0,0,0,4.17-2A.25.25,0,0,1,80,75a.32.32,0,0,1,.21.08.35.35,0,0,1,.08.22.24.24,0,0,1-.15.22,22.48,22.48,0,0,1-4.32,2.12A11.46,11.46,0,0,1,71.93,78.39Z"/><path class="cls-3" d="M79.35,78.42a1.19,1.19,0,0,1-.81-.26,1,1,0,0,1-.29-.74c0-.71.76-1.82,2.29-3.32a.29.29,0,0,1,.21-.09c.2,0,.3.09.3.28a.28.28,0,0,1-.08.2h0a18.35,18.35,0,0,0-1.54,1.75,2.48,2.48,0,0,0-.6,1.17c0,.29.18.44.52.44a10.06,10.06,0,0,0,3.07-1A32.2,32.2,0,0,0,86.26,75h.16a.29.29,0,0,1,.29.27v0a.25.25,0,0,1-.12.24,31.1,31.1,0,0,1-4,2A10.45,10.45,0,0,1,79.35,78.42Zm2.39-4.83a.26.26,0,0,1-.29-.23v0a.31.31,0,0,1,.07-.18l.48-.61a.32.32,0,0,1,.24-.11.27.27,0,0,1,.21.09.32.32,0,0,1,.08.21.37.37,0,0,1-.08.18c-.14.17-.26.31-.34.42a.62.62,0,0,0-.11.17A.29.29,0,0,1,81.74,73.59Z"/><path class="cls-3" d="M97.34,74.91a.32.32,0,0,1,.21.08.35.35,0,0,1,.08.22.22.22,0,0,1-.13.22,19.19,19.19,0,0,1-3.7,1.94,9.84,9.84,0,0,1-3.19.88c-1,0-1.43-.38-1.43-1.15a3.67,3.67,0,0,1,.72-1.82v-.14s-.07,0-.13,0l-.17.11-.16.12c-.81.55-1.42,1-1.85,1.25a18.73,18.73,0,0,1-1.66,1,3.75,3.75,0,0,1-1.52.54.78.78,0,0,1-.55-.18.61.61,0,0,1-.2-.46c0-.59.62-1.3,1.86-2.11a5.93,5.93,0,0,1,2.89-1.23,1.13,1.13,0,0,1,1,.5,5,5,0,0,1,1.39-.81.39.39,0,0,1,.26.09.32.32,0,0,1,.11.24,2.57,2.57,0,0,1-.44.77,4.31,4.31,0,0,0-1,2.11q0,.57.84.57a9.76,9.76,0,0,0,3-.82A16.42,16.42,0,0,0,97.17,75,.27.27,0,0,1,97.34,74.91ZM89,75a.41.41,0,0,0-.19-.2,1.09,1.09,0,0,0-.36,0,4.13,4.13,0,0,0-1.6.52A10,10,0,0,0,85,76.47c-.52.44-.78.77-.78,1s.06.14.17.14A3.47,3.47,0,0,0,86,77C86.71,76.57,87.7,75.92,89,75Z"/></g></g></g></g></g></g></svg>