<svg xmlns="http://www.w3.org/2000/svg" viewBox="0 0 101.8 53.02"><defs><style>.cls-1{fill:#c3b9d3;}.cls-2{fill:#8d76ac;}</style></defs><g id="Camada_2" data-name="Camada 2"><g id="Camada_1-2" data-name="Camada 1"><g id="Camada_2-2" data-name="Camada 2"><g id="Camada_1-2-2" data-name="Camada 1-2"><g id="Camada_2-2-2" data-name="Camada 2-2"><g id="Camada_1-2-2-2" data-name="Camada 1-2-2"><path class="cls-1" d="M22.89,0A18.83,18.83,0,0,1,30.7,1.42a27.11,27.11,0,0,1,5.48,3.27c1,.72,1.69.81,2.2.26s.85-1.86,1-3.93H41q-.15,2.67-.22,6.48t-.07,10.08H39.09c-.34-2.06-.65-3.71-.93-4.93a15.84,15.84,0,0,0-1-3.13,13.38,13.38,0,0,0-1.62-2.59,12.92,12.92,0,0,0-5.61-4.29A19.32,19.32,0,0,0,22.8,1.31a11.82,11.82,0,0,0-6.37,1.76,15.45,15.45,0,0,0-4.9,5.08,27.41,27.41,0,0,0-3.17,8,45.82,45.82,0,0,0-1.18,10.5A42.4,42.4,0,0,0,8.4,37.35a24.84,24.84,0,0,0,3.42,7.82A15,15,0,0,0,17,50a13.23,13.23,0,0,0,6.45,1.62,19.57,19.57,0,0,0,6.77-1.3,11.3,11.3,0,0,0,5.54-4.18A12.71,12.71,0,0,0,38,41.57a56.33,56.33,0,0,0,1.11-6.84h1.66c0,4.37,0,7.89.07,10.54s.12,4.91.22,6.74H39.38c-.19-2.07-.52-3.36-1-3.89s-1.2-.46-2.2.22a36.89,36.89,0,0,1-5.65,3.27A18,18,0,0,1,22.86,53a22.86,22.86,0,0,1-12-3.1,20.7,20.7,0,0,1-8-8.93A31.73,31.73,0,0,1,0,27,31.78,31.78,0,0,1,3,12.84,23.17,23.17,0,0,1,11,3.41,21,21,0,0,1,22.89,0Z"/><path class="cls-2" d="M101.8,1V2.52a12.23,12.23,0,0,0-3.7.54,2.71,2.71,0,0,0-1.7,1.73A13.61,13.61,0,0,0,96,8.71V44.38a13.33,13.33,0,0,0,.43,3.88A2.58,2.58,0,0,0,98.1,50a14.5,14.5,0,0,0,3.7.58V52q-1.65-.15-4.14-.18H87.4c-1.63,0-3,.08-4,.18V50.57A14.65,14.65,0,0,0,87.18,50a2.57,2.57,0,0,0,1.69-1.73,13,13,0,0,0,.44-3.88V4.77l.28.22L71.92,52.37H70.77L52.63,5.64v38a13.56,13.56,0,0,0,.47,4.06A3.19,3.19,0,0,0,55,49.79a12.58,12.58,0,0,0,4.21.76V52q-1.29-.15-3.39-.18H48.16A26.17,26.17,0,0,0,45.1,52V50.57a10.29,10.29,0,0,0,3.71-.76,3.17,3.17,0,0,0,1.69-2.09,15,15,0,0,0,.43-4.06v-35a13,13,0,0,0-.43-3.92A2.72,2.72,0,0,0,48.81,3a12.37,12.37,0,0,0-3.63-.49V1c.81.05,1.84.1,3.06.15s2.43.07,3.63.07,2.15,0,3.28-.07L58,1,74.3,44.09l-1.22.57L89.28,1.25h3.38c1.68,0,3.35,0,5-.07S100.7,1.08,101.8,1Z"/></g></g></g></g></g></g></svg>