<svg xmlns="http://www.w3.org/2000/svg" viewBox="0 0 512 512"><defs><style>.cls-1{fill:#fff;}</style></defs><g id="Camada_2" data-name="Camada 2"><g id="Layer_1" data-name="Layer 1"><path class="cls-1" d="M384,192C384,86.14,297.86,0,192,0S0,86.14,0,192V384H192C297.86,384,384,297.88,384,192ZM192,362.67H21.33V192C21.33,97.9,97.9,21.33,192,21.33S362.67,97.9,362.67,192,286.1,362.67,192,362.67Zm320-21.34V512H341.33c-63,0-118.08-34.45-147.62-85.42a234.19,234.19,0,0,0,24.12-1.41,149.33,149.33,0,0,0,123.5,65.5H490.67V341.33a149.33,149.33,0,0,0-65.5-123.5,228.7,228.7,0,0,0,1.41-24.12C477.55,223.25,512,278.29,512,341.33ZM252.33,156v7.54H237.25V156a22.65,22.65,0,0,0-22.62-22.63H169.37A22.65,22.65,0,0,0,146.75,156a26.63,26.63,0,0,0,22.52,26.41l47.86,7.69a41.65,41.65,0,0,1,35.2,41.32,37.75,37.75,0,0,1-37.7,37.7H199.54v30.17H184.46V269.12H169.37a37.75,37.75,0,0,1-37.7-37.7v-7.55h15.08v7.55A22.65,22.65,0,0,0,169.37,254h45.26a22.65,22.65,0,0,0,22.62-22.62A26.64,26.64,0,0,0,214.73,205l-47.86-7.69A41.64,41.64,0,0,1,131.67,156a37.75,37.75,0,0,1,37.7-37.71h15.09V88.12h15.08v30.17h15.09A37.75,37.75,0,0,1,252.33,156Z"/></g></g></svg>