<svg xmlns="http://www.w3.org/2000/svg" viewBox="0 0 557.75 510.72"><defs><style>.cls-1{fill:#fff;}</style></defs><g id="Camada_2" data-name="Camada 2"><g id="Camada_1-2" data-name="Camada 1"><path class="cls-1" d="M339.5,369.5l-77-77a14.49,14.49,0,0,0-20.1,0l-76.7,76.7a74.67,74.67,0,0,1-53.1,22h-9.3l97.5,97.4c30.3,29.5,79.5,29.5,109.8,0l97.1-97.1H392.6A74.67,74.67,0,0,1,339.5,369.5Z"/><path class="cls-1" d="M165.7,142.2l76.7,76.7c5.5,5.6,13.7,5.5,20.1,0l77-77a76,76,0,0,1,11.94-9.72,8.23,8.23,0,0,1-.17-1.64c0-4.86,3.57-8.4,8-9.3l.09-.07s0,0,0,0a33.15,33.15,0,0,0,3.87-3.9,98.28,98.28,0,0,0,6.91-9.07c3.51-5,6.78-10.4,10.61-15.26L310.6,22.76a77.71,77.71,0,0,0-109.9,0L103.3,120.2h9.3C132.6,120.2,151.5,127.1,165.7,142.2Z"/><path class="cls-1" d="M488.6,200.8l-7.13-7.13a12,12,0,0,1-5.6.36c-10-1.68-20.23-.86-30.3-1.15-10.39-.3-20.75-1.11-31.13-1.81-10-.67-20.19-1.59-30.15-.35-9.31,1.15-18.33,2.9-27.63.67a10.07,10.07,0,0,1-2.61-1,9.4,9.4,0,0,1-4.77,0,17.88,17.88,0,0,1-13.34-13L278.5,234.8c-7.2,6.3-16.6,10.8-26,10.8s-18.9-4.5-26.1-10.8l-76.7-76.7c-10.6-9.8-23.3-15.4-37.1-15.4H80.78l-58,58.1a77.59,77.59,0,0,0,0,109.8l58,58H112.6c13.8,0,26.5-5.6,37.1-15.4l76.7-76.6c13.9-14,38.2-14,52.1-.1l77,77a52.8,52.8,0,0,0,37.1,15.4h37.7l58.3-58.3A77.68,77.68,0,0,0,488.6,200.8Z"/><path class="cls-1" d="M431.64,116.47V58.23a9.71,9.71,0,0,1,19.41,0v58.24a9.71,9.71,0,1,1-19.41.62C431.63,116.89,431.63,116.68,431.64,116.47Zm9.71,19.41a14.56,14.56,0,1,0,14.52,14.6v0a14.54,14.54,0,0,0-14.52-14.56Zm112.39,47.37c-6.79,13.1-21.06,20.57-38.92,20.57H368c-18,0-32.12-7.47-38.92-20.57s-4.95-30.09,4.82-44.25l78-123.46A35.63,35.63,0,0,1,441.35,0a35.19,35.19,0,0,1,29.11,15.24l78.41,123.94c9.8,14.17,11.64,31,4.75,44.07Zm-20.87-33.2a.66.66,0,0,1-.19-.39L454.35,25.91a16.17,16.17,0,0,0-26.2.39L350,149.66c-6,8.54-7.38,17.86-3.89,24.56s11.17,10.19,21.74,10.19H514.63c10.58,0,18.34-3.59,21.74-10.19s2.13-16-3.59-24.17Z"/></g></g></svg>