<svg xmlns="http://www.w3.org/2000/svg" viewBox="0 0 631.88 767"><defs><style>.cls-1{fill:#8d76ac;stroke:#fff;stroke-miterlimit:10;stroke-width:21px;}.cls-2{fill:#fff;}</style></defs><g id="Camada_2" data-name="Camada 2"><g id="Layer_1" data-name="Layer 1"><rect class="cls-1" x="10.5" y="10.5" width="586" height="746" rx="62.7"/><path class="cls-2" d="M500.31,414.71a8.35,8.35,0,0,1-.07,11.79L387,538.28a25,25,0,0,1-35.31,0l-54.8-53.37a8.33,8.33,0,0,1,11.61-11.95l54.89,53.45a8.35,8.35,0,0,0,11.86.08L488.52,414.65a8.33,8.33,0,0,1,11.79.08Z"/><path class="cls-2" d="M629.45,695.28,522,587.8a165.81,165.81,0,0,0,43.27-111.62c0-91.9-74.78-166.66-166.68-166.66S231.88,384.28,231.88,476.18s74.77,166.67,166.67,166.67a165.81,165.81,0,0,0,111.61-43.27L617.65,707.06a8.26,8.26,0,0,0,5.9,2.44,8.33,8.33,0,0,0,5.9-14.22Zm-380.9-219.1c0-82.71,67.3-150,150-150s150,67.29,150,150-67.29,150-150,150S248.55,558.9,248.55,476.18Z"/><rect class="cls-2" x="248.55" y="87.07" width="150" height="10" rx="5"/><rect class="cls-2" x="153.65" y="173.27" width="200" height="10" rx="5"/><rect class="cls-2" x="103.5" y="132.67" width="400" height="10" rx="5"/><path class="cls-2" d="M293,589.59H108.5a5,5,0,0,0,0,10h195A61,61,0,0,1,293,589.59Z"/><path class="cls-2" d="M260.9,393.72a28.14,28.14,0,0,1,3.3-4.7H108.5a5,5,0,0,0,0,10H259.71A9.79,9.79,0,0,1,260.9,393.72Z"/><path class="cls-2" d="M498.5,344.6h-4.1A10.34,10.34,0,0,1,497,351a9,9,0,0,1-.7,3.56h2.22a5,5,0,0,0,0-10Z"/><path class="cls-2" d="M300.07,353.37a38.55,38.55,0,0,1,7.87-8.77H108.5a5,5,0,0,0,0,10H299.39A9.41,9.41,0,0,1,300.07,353.37Z"/><rect class="cls-2" x="103.5" y="252.16" width="400" height="10" rx="5"/><rect class="cls-2" x="307.96" y="209.22" width="200" height="10" rx="5"/><rect class="cls-2" x="103.49" y="300.19" width="200" height="10" rx="5"/></g></g></svg>