<svg xmlns="http://www.w3.org/2000/svg" viewBox="0 0 545.71 570.98"><defs><style>.cls-1{fill:#fff;}</style></defs><g id="Camada_2" data-name="Camada 2"><g id="Outline"><path class="cls-1" d="M506.44,534.83,379.1,407.49a213.58,213.58,0,0,0,33.31-213.82,150.05,150.05,0,0,1-22.53-.82c-7,2.74-15.6,4.63-23.31,3.14a170.83,170.83,0,1,1-37.36-49.34c2.32-14.27,15.37-24.28,23.81-35.19a5.68,5.68,0,0,1,.61-.68q-2.31-2-4.7-4C257.58,32.12,123,45.62,48.26,137S-12.93,363,78.43,437.65a213.64,213.64,0,0,0,270.5,0L476.27,565a21.33,21.33,0,0,0,30.17-30.16Z"/><path class="cls-1" d="M230.71,322.38a11.11,11.11,0,0,1,0-22.22h55.55a11.1,11.1,0,0,1,11.11,11.11v55.55a11.11,11.11,0,0,1-22.22,0V338.11l-58.81,58.78a11.13,11.13,0,0,1-15.73,0l-36.56-36.56L116.35,408a11.12,11.12,0,0,1-15.73-15.73l55.55-55.55a11.13,11.13,0,0,1,15.73,0l36.59,36.59,50.93-50.93Z"/><path class="cls-1" d="M261.58,197.74A8.34,8.34,0,1,0,249.78,186l-83.32,83.32a8.34,8.34,0,0,0,11.8,11.79l83.32-83.32Zm-64.21,2.45a16.67,16.67,0,1,0-16.66,16.66A16.66,16.66,0,0,0,197.37,200.19ZM264,266.84a16.66,16.66,0,1,0-16.66,16.67A16.66,16.66,0,0,0,264,266.84Z"/><path class="cls-1" d="M419.6,116.47V58.23a9.71,9.71,0,0,1,19.41,0v58.24a9.71,9.71,0,1,1-19.4.68v-.06C419.59,116.89,419.59,116.68,419.6,116.47Zm9.71,19.41a14.56,14.56,0,1,0,14.52,14.6h0a14.53,14.53,0,0,0-14.52-14.56h0ZM541.7,183.25c-6.79,13.1-21.06,20.57-38.92,20.57H356c-18,0-32.12-7.47-38.92-20.57s-5-30.09,4.82-44.25l78-123.46A35.64,35.64,0,0,1,429.31,0a35.17,35.17,0,0,1,29.11,15.24l78.41,123.94c9.8,14.17,11.64,31,4.75,44.07Zm-20.87-33.2a.69.69,0,0,1-.19-.39L442.31,25.91a16.17,16.17,0,0,0-22.63-3.29,16.41,16.41,0,0,0-3.57,3.68L338,149.66c-6,8.54-7.38,17.86-3.89,24.56s11.17,10.19,21.74,10.19H502.59c10.58,0,18.34-3.59,21.74-10.19s2.13-16-3.59-24.17Z"/></g></g></svg>