<svg xmlns="http://www.w3.org/2000/svg" viewBox="0 0 541.71 592.56"><defs><style>.cls-1{fill:#fff;}</style></defs><g id="Camada_2" data-name="Camada 2"><g id="Outline"><path class="cls-1" d="M246.68,392.57a11.11,11.11,0,0,1,0-22.22h55.54a11.09,11.09,0,0,1,11.11,11.11V437a11.11,11.11,0,1,1-22.22,0V408.29L232.3,467.07a11.12,11.12,0,0,1-15.72,0L180,430.51l-47.7,47.67a11.12,11.12,0,0,1-15.73-15.73l55.55-55.55a11.12,11.12,0,0,1,15.72,0l36.6,36.6,50.93-50.93Z"/><path class="cls-1" d="M260.89,258.15a8.34,8.34,0,0,0-11.8-11.8l-83.32,83.32a8.34,8.34,0,0,0,11.8,11.79l83.32-83.31Zm-64.21,2.44A16.67,16.67,0,1,0,180,277.26,16.66,16.66,0,0,0,196.68,260.59Zm66.65,66.66a16.66,16.66,0,1,0-16.66,16.66A16.66,16.66,0,0,0,263.33,327.25Z"/><path class="cls-1" d="M415.6,116.47V58.23a9.71,9.71,0,0,1,19.41,0v58.24a9.71,9.71,0,0,1-19.41.68v-.06C415.59,116.89,415.59,116.68,415.6,116.47Zm9.71,19.41a14.56,14.56,0,1,0,14.52,14.6h0a14.54,14.54,0,0,0-14.52-14.56h0ZM537.7,183.25c-6.79,13.1-21.06,20.57-38.92,20.57H352c-18,0-32.12-7.47-38.92-20.57s-5-30.09,4.82-44.25l78-123.46A35.62,35.62,0,0,1,425.31,0a35.19,35.19,0,0,1,29.11,15.24l78.41,123.94c9.8,14.17,11.64,31,4.75,44.07Zm-20.87-33.2a.63.63,0,0,1-.19-.39L438.31,25.91a16.17,16.17,0,0,0-26.2.39L334,149.66c-6,8.54-7.38,17.86-3.89,24.56s11.17,10.19,21.74,10.19H498.59c10.58,0,18.34-3.59,21.74-10.19s2.13-16-3.59-24.17Z"/><path class="cls-1" d="M508.89,574.36,371.31,436.78a212.31,212.31,0,0,0,28.6-246.22,38.27,38.27,0,0,1-19.17,5.18,10,10,0,0,1-2.64-.31,190.87,190.87,0,0,1,27.23,98.48c0,105.88-86.12,192-192,192s-192-86.12-192-192,86.15-192,192-192A190.93,190.93,0,0,1,323.89,137c.5-4.33,2.8-8,5.83-11.3,3.73-4.06,9.59-3.31,13.15,0,.19-.23.4-.45.6-.68A212.24,212.24,0,0,0,213.33,80.58C95.7,80.58,0,176.28,0,293.91S95.7,507.24,213.33,507.24A212.24,212.24,0,0,0,356.2,451.86L493.78,589.44a10.63,10.63,0,0,0,7.55,3.12,10.66,10.66,0,0,0,7.56-18.2Z"/></g></g></svg>